<?xml version="1.0" encoding="UTF-8"?>
<svg version="1.1" xmlns="http://www.w3.org/2000/svg" width="512" height="512">
<path d="M0 0 C6.33708477 3.76017893 9.74523253 9.3387796 11.5625 16.375 C11.97756512 20.28817191 11.96781369 24.17059123 11.94345093 28.10290527 C11.95047089 29.85041022 11.95047089 29.85041022 11.95763266 31.63321829 C11.96749504 34.84926417 11.9639907 38.0649676 11.95467401 41.28100467 C11.94786743 44.75618693 11.95837269 48.231324 11.96661377 51.70649719 C11.97993619 58.50738363 11.97708004 65.30817059 11.96837585 72.10906088 C11.96159383 77.63750945 11.96068482 83.16593018 11.9639473 88.69438171 C11.964407 89.48196596 11.96486669 90.26955022 11.96534032 91.08100066 C11.96629952 92.68108754 11.96727216 94.28117442 11.9682581 95.88126129 C11.97680762 110.87650713 11.96698473 125.87169791 11.950857 140.86693472 C11.93745421 153.72658431 11.93978243 166.58615265 11.95361328 179.44580078 C11.96967683 194.38830162 11.97598369 209.33075423 11.96677649 224.2732625 C11.96582087 225.86738109 11.96487776 227.46149968 11.9639473 229.05561829 C11.96348447 229.83990411 11.96302164 230.62418994 11.96254479 231.43224201 C11.95995723 236.95245435 11.96432086 242.47263603 11.97138596 247.99284363 C11.97980976 254.72242975 11.97750234 261.45191092 11.96154372 268.18148506 C11.95367281 271.61339204 11.95054912 275.04512421 11.96049118 278.4770298 C11.96868629 282.20055926 11.95840871 285.92359663 11.94345093 289.64709473 C11.95348918 291.26733559 11.95348918 291.26733559 11.96373022 292.92030859 C11.89929904 301.18716326 10.65869288 308.27880712 4.5625 314.375 C-1.56153025 318.61031064 -7.00993513 320.12988863 -14.4375 319.375 C-20.08981007 317.95932013 -25.18843393 315.62702797 -28.59375 310.703125 C-31.50763501 305.83277433 -32.56006868 302.05495541 -32.57172108 296.45979118 C-32.57617892 295.46522624 -32.58063676 294.47066129 -32.58522969 293.44595802 C-32.58504533 292.35551032 -32.58486097 291.26506262 -32.58467102 290.14157104 C-32.58834771 288.98139658 -32.5920244 287.82122212 -32.5958125 286.62589085 C-32.60493037 283.40477945 -32.60954707 280.183698 -32.61220181 276.96257591 C-32.61610897 273.4886585 -32.62568703 270.01475579 -32.63441467 266.54084778 C-32.65416762 258.1508518 -32.66424388 249.76085463 -32.67314246 241.37084121 C-32.67752734 237.41822811 -32.68289364 233.46561635 -32.68813133 229.5130043 C-32.70514256 216.37081874 -32.71963622 203.22863401 -32.72688007 190.08643913 C-32.72878992 186.6767667 -32.73071026 183.26709428 -32.73266602 179.85742188 C-32.73314976 179.00998178 -32.7336335 178.16254168 -32.7341319 177.28942157 C-32.74243032 163.56472084 -32.76776452 149.84010731 -32.80024669 136.11544465 C-32.83333517 122.01949329 -32.85133046 107.92358622 -32.85452431 93.82759583 C-32.85668777 85.91530138 -32.8654123 78.0031341 -32.89098549 70.09087753 C-32.91271696 63.35173285 -32.92073093 56.61274624 -32.91101871 49.87357049 C-32.90648101 46.43732808 -32.9083287 43.00141163 -32.92778015 39.56521416 C-32.94547326 35.83331213 -32.93840424 32.1022335 -32.92524719 28.37033081 C-32.93621644 27.29326744 -32.94718568 26.21620407 -32.95848733 25.10650241 C-32.89490512 17.62109469 -31.87399458 10.19496326 -26.68745214 4.42966926 C-19.41904254 -2.26680096 -9.16880435 -4.18348487 0 0 Z " fill="#000000" transform="translate(330.4375,86.625)"/>
<path d="M0 0 C6.39214191 3.80106336 10.55715742 8.85697064 12.48046875 16.08984375 C12.66726576 18.87349774 12.75932153 21.55534307 12.74789429 24.33685303 C12.7524254 25.15163439 12.75695651 25.96641575 12.76162493 26.80588746 C12.77425462 29.52787635 12.77264948 32.24966479 12.77099609 34.97167969 C12.77698229 36.92676042 12.78378804 38.88183879 12.79135132 40.83691406 C12.8090105 46.14285877 12.8137067 51.44873895 12.81498289 56.7547102 C12.81640524 60.07185473 12.82067645 63.38898289 12.82597733 66.70612335 C12.84447822 78.28488709 12.85264797 89.86360479 12.85107422 101.44238281 C12.84987321 112.22487542 12.87096749 123.00716773 12.90256155 133.78960967 C12.92874073 143.05521259 12.9394408 152.32075017 12.9381634 161.58638978 C12.9376542 167.11658155 12.94331428 172.64659534 12.9645195 178.17675018 C12.98392912 183.38069122 12.98400759 188.58428501 12.96948624 193.78823853 C12.96740034 195.69331623 12.97208587 197.59841583 12.98420715 199.50345612 C13.11218168 221.0178588 13.11218168 221.0178588 6.73041344 228.00625229 C0.91906665 233.45994165 -4.68841634 234.55611874 -12.51171875 234.40234375 C-18.48705852 233.78152923 -22.09547026 231.48225894 -26.33203125 227.33984375 C-30.60383154 220.99316903 -31.9680052 215.16946592 -31.9072113 207.59559631 C-31.91259684 206.77840053 -31.91798238 205.96120476 -31.92353112 205.11924547 C-31.93775469 202.40103646 -31.93072095 199.68331829 -31.92358398 196.96508789 C-31.92929047 195.00808829 -31.93625581 193.05109201 -31.94438171 191.09410095 C-31.96229705 185.79243842 -31.96114781 180.49094155 -31.95543933 175.18925786 C-31.95234525 170.75835242 -31.95844235 166.3274787 -31.96447808 161.89657778 C-31.97851625 151.44152297 -31.97696777 140.98654989 -31.96557617 130.53149414 C-31.95409441 119.75574612 -31.96817331 108.98024696 -31.99497265 98.20453173 C-32.01714306 88.94229287 -32.02376402 79.68013206 -32.01789623 70.41786855 C-32.01452884 64.89054398 -32.01692748 59.36337893 -32.03414726 53.83607674 C-32.0496357 48.63784179 -32.0456396 43.43997504 -32.02684212 38.24175453 C-32.02316158 36.33787353 -32.02624905 34.43396513 -32.03672791 32.53010941 C-32.14156659 11.90211444 -32.14156659 11.90211444 -25.74024105 5.2373209 C-18.53806483 -1.39673484 -9.49709494 -3.43073352 0 0 Z " fill="#000000" transform="translate(201.51953125,128.91015625)"/>
<path d="M0 0 C5.47894518 3.25099237 8.80021901 7.79850133 10.94569778 13.77583313 C12.32262836 19.5781345 11.97713783 25.63575222 11.95068359 31.56835938 C11.95475374 33.10334139 11.9600981 34.63832048 11.96661377 36.17329407 C11.98024059 40.32412522 11.97500798 44.47473161 11.96547651 48.62556648 C11.95785582 52.97934682 11.9649322 57.33310852 11.96963501 61.68688965 C11.97508556 68.99686114 11.96791937 76.30674157 11.95361328 83.61669922 C11.9372881 92.05554233 11.94257711 100.49416796 11.9590925 108.93300581 C11.97272737 116.19184967 11.97461726 123.45062823 11.96677649 130.70948076 C11.96211096 135.03899733 11.9614442 139.36841183 11.97138596 143.69792175 C11.98008253 147.76920386 11.97398488 151.84020686 11.95670319 155.91145897 C11.95275266 157.40132879 11.95384771 158.89122229 11.96049118 160.38108253 C11.99653814 169.28952129 11.72349393 176.40772382 6.8125 184.125 C1.90541777 189.03208223 -3.34380831 191.16875389 -10.1875 191.625 C-16.84324635 191.52584549 -22.71905131 189.09344869 -27.4375 184.375 C-31.43895448 178.58911312 -32.55869562 173.93684654 -32.58467102 167.00094604 C-32.59182632 165.6888768 -32.59898163 164.37680756 -32.60635376 163.02497864 C-32.60919388 161.57247949 -32.61190563 160.11998008 -32.61450195 158.66748047 C-32.6207692 157.13633572 -32.62741623 155.60519248 -32.63441467 154.0740509 C-32.65542994 149.04677382 -32.66581607 144.01949653 -32.67578125 138.9921875 C-32.67983003 137.2588919 -32.68394699 135.52559646 -32.68813133 133.79230118 C-32.70717903 125.64656997 -32.72140981 117.50084779 -32.7297433 109.35509861 C-32.73950841 99.96598807 -32.76581066 90.57711374 -32.80624419 81.18808639 C-32.83645441 73.9225148 -32.8512169 66.65701072 -32.85452431 59.39137757 C-32.85686959 55.05607815 -32.86576142 50.7210312 -32.89098549 46.38579941 C-32.91435674 42.30305379 -32.91846338 38.22072523 -32.90822411 34.13792992 C-32.90773079 32.6456596 -32.91399049 31.15336811 -32.92778015 29.66116142 C-33.00599413 20.69003262 -33.05364052 11.47009568 -26.6873827 4.44329643 C-19.44815557 -2.28502554 -9.15506218 -4.17721468 0 0 Z " fill="#000000" transform="translate(266.4375,150.625)"/>
<path d="M0 0 C5.13677482 5.13677482 7.36023512 10.83946926 7.39717102 18.03630066 C7.40432632 18.99642059 7.41148163 19.95654053 7.41885376 20.945755 C7.42154266 21.99256943 7.42423157 23.03938385 7.42700195 24.11791992 C7.43685875 25.77960205 7.43685875 25.77960205 7.44691467 27.47485352 C7.4666357 31.14339262 7.47830789 34.8118908 7.48828125 38.48046875 C7.49235678 39.73431177 7.4964323 40.98815479 7.50063133 42.27999306 C7.51933776 48.23284704 7.53390426 54.18568806 7.5422433 60.13856429 C7.55200525 66.99267155 7.5783017 73.84645498 7.61874419 80.70044822 C7.65263919 86.65060136 7.66439621 92.60067595 7.66844749 98.55092812 C7.67331303 101.07502754 7.68492598 103.59912352 7.70348549 106.12315941 C7.72788011 109.66073618 7.72691068 113.19747196 7.7199707 116.73510742 C7.73278076 117.77180069 7.74559082 118.80849396 7.75878906 119.87660217 C7.70715128 127.12139434 6.61004345 133.69482076 1.47058582 139.13275433 C-4.84615876 144.84065403 -9.75474046 145.7614137 -18.26171875 145.62890625 C-24.61513022 144.93878205 -28.41524406 141.91047551 -32.625 137.3125 C-37.11974908 130.83477339 -37.04278493 124.75736031 -37.0246582 117.13916016 C-37.02976913 116.02947372 -37.03488007 114.91978729 -37.04014587 113.776474 C-37.05402788 110.11394839 -37.05308605 106.45161127 -37.05078125 102.7890625 C-37.05466904 100.23847382 -37.05900388 97.68788578 -37.06376648 95.13729858 C-37.07122579 89.7926802 -37.07107823 84.44813075 -37.06567383 79.10351562 C-37.05963708 72.9402565 -37.07194114 66.77722584 -37.0932439 60.61400568 C-37.11303407 54.66809783 -37.11602765 48.7222603 -37.11250877 42.7763176 C-37.11302151 40.25419961 -37.11825031 37.73207794 -37.12832069 35.20998001 C-37.14068643 31.67968509 -37.13389189 28.14991571 -37.12231445 24.61962891 C-37.12995819 23.58248245 -37.13760193 22.545336 -37.14547729 21.47676086 C-37.08637214 13.30357463 -35.76887963 6.26887963 -29.75 0.25 C-19.91568315 -6.55130324 -9.93984913 -6.32535854 0 0 Z " fill="#000000" transform="translate(398.75,174.75)"/>
<path d="M0 0 C6.41140939 3.81252069 10.51195034 8.85400679 12.48046875 16.08984375 C12.74789429 19.47747803 12.74789429 19.47747803 12.77099609 23.22167969 C12.77771332 23.90875 12.78443054 24.59582031 12.79135132 25.30371094 C12.81024762 27.5606218 12.81425154 29.81723384 12.81640625 32.07421875 C12.82284117 33.65594603 12.82957003 35.23767213 12.83657837 36.81939697 C12.84853107 40.13125362 12.85226139 43.44300613 12.85107422 46.75488281 C12.85087141 50.97570059 12.87814239 55.19584219 12.91261864 59.41650009 C12.9349814 62.68356321 12.93890887 65.95046618 12.93785477 69.21759796 C12.94019784 70.77236505 12.94894756 72.32713744 12.9645195 73.88182831 C13.13768803 92.96023534 13.13768803 92.96023534 6.73031616 100.01751709 C0.90030078 105.45012009 -4.68231799 106.55623861 -12.51171875 106.40234375 C-18.48705852 105.78152923 -22.09547026 103.48225894 -26.33203125 99.33984375 C-32.22661276 90.58217979 -31.97897102 82.06778253 -31.953125 71.875 C-31.95769362 70.29373451 -31.96300121 68.712471 -31.9690094 67.13121033 C-31.97791261 63.82705589 -31.9755494 60.52314351 -31.96557617 57.21899414 C-31.95408954 53.00482385 -31.97430689 48.79149193 -32.00349331 44.57743168 C-32.02192372 41.31467975 -32.02154933 38.05212622 -32.01585579 34.78933525 C-32.01570341 33.23654441 -32.02167804 31.6837394 -32.03414726 30.13099861 C-32.15960103 11.95043911 -32.15960103 11.95043911 -25.74021912 5.22596741 C-18.51460668 -1.38208446 -9.50902427 -3.43504288 0 0 Z " fill="#000000" transform="translate(137.51953125,192.91015625)"/>
</svg>
