<svg version="1.1" id="Layer_1" xmlns="http://www.w3.org/2000/svg" xmlns:xlink="http://www.w3.org/1999/xlink" x="0px" y="0px"
	 width="100%" viewBox="0 0 1080 1080" enable-background="new 0 0 1080 1080" xml:space="preserve">
<path fill="#1E1E1E" opacity="1.000000" stroke="none" 
	d="
M1081.000000,2.000000 
	C1081.000000,361.598755 1081.000000,721.197510 1081.000000,1081.000000 
	C721.635803,1081.000000 362.271515,1081.000000 2.453563,1080.531372 
	C1.999862,720.817505 1.999862,361.572296 1.999862,2.070890 
	C4.595435,2.070890 6.571770,2.070890 8.548104,2.070890 
	C363.866211,2.070890 719.184326,2.071016 1074.502441,2.067963 
	C1076.668335,2.067945 1078.834106,2.023630 1081.000000,2.000000 
M345.717529,528.761841 
	C341.484833,536.249146 336.025818,543.304260 333.210968,551.291260 
	C307.619141,623.907349 282.476044,696.681702 257.257141,769.428955 
	C255.899078,773.346375 255.036407,777.435486 253.943115,781.444702 
	C254.295227,781.622131 254.647354,781.799500 254.999466,781.976929 
	C289.070953,753.856995 323.142426,725.737122 358.113098,696.875061 
	C358.475128,701.396057 358.960754,704.668030 358.965668,707.940735 
	C359.037262,755.763794 359.042908,803.586853 359.069092,851.409973 
	C359.073578,859.601624 359.392090,859.929871 367.428741,859.930481 
	C422.584076,859.934753 477.739380,859.945068 532.894653,859.894104 
	C535.523315,859.891663 538.151367,859.327637 541.671448,859.111816 
	C542.862793,859.083984 544.054077,859.056213 545.969971,859.348877 
	C548.616943,859.543396 551.263855,859.906128 553.910950,859.907715 
	C608.386841,859.940674 662.862732,859.933105 717.338623,859.931580 
	C726.389404,859.931335 726.876282,859.475220 726.835205,850.300659 
	C726.622803,802.828735 726.364136,755.357117 726.209778,707.885071 
	C726.198914,704.551147 726.899658,701.214844 727.382690,696.859253 
	C762.643738,725.889282 796.898315,754.090637 831.152893,782.291992 
	C831.539673,781.973816 831.926453,781.655579 832.313232,781.337402 
	C831.727539,779.324097 831.225342,777.282043 830.544067,775.301575 
	C809.945374,715.421204 789.413452,655.517761 768.666382,595.688782 
	C762.046570,576.598938 754.848572,557.709534 747.997437,537.872070 
	C747.389465,531.759338 749.093140,526.477051 753.035889,521.670715 
	C754.764893,519.562988 756.289917,516.762878 756.616455,514.117737 
	C758.308716,500.409393 759.583862,486.649536 761.354553,472.230927 
	C763.535522,457.260956 766.681641,442.356903 767.709595,427.308197 
	C770.391602,388.045563 761.507080,351.124146 744.055420,315.885040 
	C702.374634,231.721268 607.376160,180.762573 516.937622,192.811737 
	C459.726501,200.434006 411.665833,225.532883 373.557190,268.472260 
	C333.782349,313.289062 315.398621,366.284912 317.885376,426.339783 
	C318.519806,441.661285 320.018768,456.826355 324.965424,472.289581 
	C331.997223,490.926300 339.029053,509.562988 345.717529,528.761841 
z"/>
<path fill="#FFFFFF" opacity="1.000000" stroke="none" 
	d="
M1081.000000,1.500000 
	C1078.834106,2.023630 1076.668335,2.067945 1074.502441,2.067963 
	C719.184326,2.071016 363.866211,2.070890 8.548104,2.070890 
	C6.571770,2.070890 4.595435,2.070890 1.999862,2.070890 
	C1.999862,361.572296 1.999862,720.817505 1.999938,1080.531372 
	C1.666681,1080.833374 1.056199,1080.684326 1.044459,1080.497559 
	C0.961022,1079.169800 1.000000,1077.834229 1.000000,1076.501221 
	C1.000000,718.084045 1.000000,359.666870 1.000000,1.000000 
	C360.999969,1.000000 721.000000,1.000000 1081.000000,1.500000 
z"/>
<path fill="#D4D4D4" opacity="1.000000" stroke="none" 
	d="
M545.245422,859.028381 
	C544.054077,859.056213 542.862793,859.083984 541.175964,858.741882 
	C537.431396,854.589355 534.448853,850.533386 530.891968,847.066589 
	C496.792145,813.830017 462.636078,780.650818 428.382355,747.572937 
	C423.238403,742.605652 420.917816,737.009888 420.928406,729.845825 
	C421.042816,652.404846 421.000427,574.963623 420.998260,497.522461 
	C420.998108,492.193970 421.241455,486.848602 420.903748,481.540863 
	C420.377838,473.276581 416.060181,471.015717 408.857513,474.939117 
	C407.992004,475.410583 407.190826,476.031281 406.438843,476.675079 
	C400.115417,482.088135 393.830170,487.545898 387.495880,492.946136 
	C373.695923,504.711090 359.873871,516.450073 346.060852,528.199707 
	C339.029053,509.562988 331.997223,490.926300 325.266846,471.675476 
	C327.038391,457.343109 327.929169,443.532745 330.092407,429.924652 
	C335.543762,395.631989 349.565521,365.473358 374.614990,340.850403 
	C405.615143,310.378113 452.253876,305.652313 488.312531,329.815308 
	C514.128418,347.114594 529.080811,372.189789 538.108765,401.286285 
	C539.479370,405.703583 540.757324,410.149597 542.078125,414.582306 
	C543.841248,412.719818 544.692627,410.803619 545.192261,408.799744 
	C551.140686,384.942871 561.857971,363.668915 578.667175,345.514343 
	C611.513184,310.039459 662.422852,304.175232 699.853210,331.651306 
	C719.426331,346.019165 733.313782,364.762878 743.056030,386.828766 
	C754.203430,412.077332 758.392151,438.686035 759.074402,466.045807 
	C759.131775,468.347687 760.333984,470.621033 761.004395,472.907623 
	C759.583862,486.649536 758.308716,500.409393 756.616455,514.117737 
	C756.289917,516.762878 754.764893,519.562988 753.035889,521.670715 
	C749.093140,526.477051 747.389465,531.759338 747.684204,538.136963 
	C741.350281,531.821106 735.886902,524.599365 729.199280,518.785950 
	C712.498596,504.268250 695.337341,490.271515 678.097778,476.392578 
	C675.709167,474.469543 670.855164,472.731628 668.886536,473.885010 
	C666.366882,475.361267 665.578552,479.840179 664.140076,483.067902 
	C663.894348,483.619171 664.137939,484.383911 664.137939,485.050018 
	C664.139893,566.671021 664.106812,648.292114 664.196350,729.912964 
	C664.204590,737.410889 661.673462,743.462769 656.334045,748.609375 
	C627.319153,776.576660 598.233704,804.472595 569.439453,832.665710 
	C560.929199,840.998169 553.285950,850.216187 545.245422,859.028381 
M582.002197,465.502594 
	C588.254761,458.617432 594.593872,451.807556 600.695374,444.791016 
	C602.112427,443.161469 604.046387,439.861298 603.429810,439.015228 
	C602.055298,437.129028 599.285828,436.159912 596.949524,435.121277 
	C595.971985,434.686615 594.650879,435.012817 593.485962,435.013031 
	C559.862000,435.019897 526.238037,435.025146 492.614044,435.050446 
	C490.957733,435.051697 489.257446,435.024445 487.653076,435.365326 
	C481.531219,436.666229 480.224823,440.290375 484.476929,444.897308 
	C502.284332,464.190796 520.231262,483.355438 538.076965,502.613739 
	C541.138672,505.917755 543.591003,506.462921 547.020020,502.715302 
	C558.352234,490.330261 569.985474,478.220551 582.002197,465.502594 
M461.014313,373.528656 
	C452.535187,363.965302 441.601227,359.843170 429.250946,361.365143 
	C413.418457,363.316254 399.633270,378.144012 398.036774,393.411407 
	C396.199158,410.984283 404.601471,425.476624 420.581055,432.295715 
	C436.458527,439.071259 458.773102,431.252289 465.727905,416.099457 
	C472.479675,401.389038 472.348480,387.114197 461.014313,373.528656 
M660.780090,433.539764 
	C689.972656,425.711884 696.381958,389.499908 676.032898,371.360474 
	C662.281433,359.102295 643.890320,357.504883 629.039856,368.733734 
	C617.637634,377.355255 611.121033,398.095184 618.693726,413.492249 
	C625.334045,426.993622 642.216309,438.906799 660.780090,433.539764 
z"/>
<path fill="#2195F2" opacity="1.000000" stroke="none" 
	d="
M761.179443,472.569275 
	C760.333984,470.621033 759.131775,468.347687 759.074402,466.045807 
	C758.392151,438.686035 754.203430,412.077332 743.056030,386.828766 
	C733.313782,364.762878 719.426331,346.019165 699.853210,331.651306 
	C662.422852,304.175232 611.513184,310.039459 578.667175,345.514343 
	C561.857971,363.668915 551.140686,384.942871 545.192261,408.799744 
	C544.692627,410.803619 543.841248,412.719818 542.078125,414.582306 
	C540.757324,410.149597 539.479370,405.703583 538.108765,401.286285 
	C529.080811,372.189789 514.128418,347.114594 488.312531,329.815308 
	C452.253876,305.652313 405.615143,310.378113 374.614990,340.850403 
	C349.565521,365.473358 335.543762,395.631989 330.092407,429.924652 
	C327.929169,443.532745 327.038391,457.343109 325.257751,471.263580 
	C320.018768,456.826355 318.519806,441.661285 317.885376,426.339783 
	C315.398621,366.284912 333.782349,313.289062 373.557190,268.472260 
	C411.665833,225.532883 459.726501,200.434006 516.937622,192.811737 
	C607.376160,180.762573 702.374634,231.721268 744.055420,315.885040 
	C761.507080,351.124146 770.391602,388.045563 767.709595,427.308197 
	C766.681641,442.356903 763.535522,457.260956 761.179443,472.569275 
z"/>
<path fill="#2195F1" opacity="1.000000" stroke="none" 
	d="
M545.607666,859.188599 
	C553.285950,850.216187 560.929199,840.998169 569.439453,832.665710 
	C598.233704,804.472595 627.319153,776.576660 656.334045,748.609375 
	C661.673462,743.462769 664.204590,737.410889 664.196350,729.912964 
	C664.106812,648.292114 664.139893,566.671021 664.137939,485.050018 
	C664.137939,484.383911 663.894348,483.619171 664.140076,483.067902 
	C665.578552,479.840179 666.366882,475.361267 668.886536,473.885010 
	C670.855164,472.731628 675.709167,474.469543 678.097778,476.392578 
	C695.337341,490.271515 712.498596,504.268250 729.199280,518.785950 
	C735.886902,524.599365 741.350281,531.821106 747.643005,538.565125 
	C754.848572,557.709534 762.046570,576.598938 768.666382,595.688782 
	C789.413452,655.517761 809.945374,715.421204 830.544067,775.301575 
	C831.225342,777.282043 831.727539,779.324097 832.313232,781.337402 
	C831.926453,781.655579 831.539673,781.973816 831.152893,782.291992 
	C796.898315,754.090637 762.643738,725.889282 727.382690,696.859253 
	C726.899658,701.214844 726.198914,704.551147 726.209778,707.885071 
	C726.364136,755.357117 726.622803,802.828735 726.835205,850.300659 
	C726.876282,859.475220 726.389404,859.931335 717.338623,859.931580 
	C662.862732,859.933105 608.386841,859.940674 553.910950,859.907715 
	C551.263855,859.906128 548.616943,859.543396 545.607666,859.188599 
z"/>
<path fill="#2196F2" opacity="1.000000" stroke="none" 
	d="
M345.889191,528.480774 
	C359.873871,516.450073 373.695923,504.711090 387.495880,492.946136 
	C393.830170,487.545898 400.115417,482.088135 406.438843,476.675079 
	C407.190826,476.031281 407.992004,475.410583 408.857513,474.939117 
	C416.060181,471.015717 420.377838,473.276581 420.903748,481.540863 
	C421.241455,486.848602 420.998108,492.193970 420.998260,497.522461 
	C421.000427,574.963623 421.042816,652.404846 420.928406,729.845825 
	C420.917816,737.009888 423.238403,742.605652 428.382355,747.572937 
	C462.636078,780.650818 496.792145,813.830017 530.891968,847.066589 
	C534.448853,850.533386 537.431396,854.589355 540.730103,858.698547 
	C538.151367,859.327637 535.523315,859.891663 532.894653,859.894104 
	C477.739380,859.945068 422.584076,859.934753 367.428741,859.930481 
	C359.392090,859.929871 359.073578,859.601624 359.069092,851.409973 
	C359.042908,803.586853 359.037262,755.763794 358.965668,707.940735 
	C358.960754,704.668030 358.475128,701.396057 358.113098,696.875061 
	C323.142426,725.737122 289.070953,753.856995 254.999466,781.976929 
	C254.647354,781.799500 254.295227,781.622131 253.943115,781.444702 
	C255.036407,777.435486 255.899078,773.346375 257.257141,769.428955 
	C282.476044,696.681702 307.619141,623.907349 333.210968,551.291260 
	C336.025818,543.304260 341.484833,536.249146 345.889191,528.480774 
z"/>
<path fill="#FDFDFD" opacity="1.000000" stroke="none" 
	d="
M581.752686,465.753845 
	C569.985474,478.220551 558.352234,490.330261 547.020020,502.715302 
	C543.591003,506.462921 541.138672,505.917755 538.076965,502.613739 
	C520.231262,483.355438 502.284332,464.190796 484.476929,444.897308 
	C480.224823,440.290375 481.531219,436.666229 487.653076,435.365326 
	C489.257446,435.024445 490.957733,435.051697 492.614044,435.050446 
	C526.238037,435.025146 559.862000,435.019897 593.485962,435.013031 
	C594.650879,435.012817 595.971985,434.686615 596.949524,435.121277 
	C599.285828,436.159912 602.055298,437.129028 603.429810,439.015228 
	C604.046387,439.861298 602.112427,443.161469 600.695374,444.791016 
	C594.593872,451.807556 588.254761,458.617432 581.752686,465.753845 
z"/>
<path fill="#FEFEFF" opacity="1.000000" stroke="none" 
	d="
M461.264679,373.784607 
	C472.348480,387.114197 472.479675,401.389038 465.727905,416.099457 
	C458.773102,431.252289 436.458527,439.071259 420.581055,432.295715 
	C404.601471,425.476624 396.199158,410.984283 398.036774,393.411407 
	C399.633270,378.144012 413.418457,363.316254 429.250946,361.365143 
	C441.601227,359.843170 452.535187,363.965302 461.264679,373.784607 
M435.094696,399.070099 
	C442.111908,397.346649 445.663330,392.868378 445.101685,386.451538 
	C444.583801,380.534760 439.158966,375.191284 433.360138,374.886169 
	C426.467346,374.523499 420.176575,380.109497 420.000977,386.748657 
	C419.815063,393.778625 426.149475,399.294342 435.094696,399.070099 
z"/>
<path fill="#FEFEFF" opacity="1.000000" stroke="none" 
	d="
M660.385620,433.664612 
	C642.216309,438.906799 625.334045,426.993622 618.693726,413.492249 
	C611.121033,398.095184 617.637634,377.355255 629.039856,368.733734 
	C643.890320,357.504883 662.281433,359.102295 676.032898,371.360474 
	C696.381958,389.499908 689.972656,425.711884 660.385620,433.664612 
M655.400513,396.991302 
	C660.887024,391.050903 661.240967,386.290314 656.737671,380.254242 
	C653.711914,376.198517 649.831909,373.900940 644.742676,375.123138 
	C639.748169,376.322571 636.185669,379.542328 634.853882,384.595673 
	C633.520447,389.655212 635.752747,393.758026 639.507019,396.887146 
	C644.334595,400.910858 649.568909,400.354797 655.400513,396.991302 
z"/>
<path fill="#2598F3" opacity="1.000000" stroke="none" 
	d="
M434.673462,399.114075 
	C426.149475,399.294342 419.815063,393.778625 420.000977,386.748657 
	C420.176575,380.109497 426.467346,374.523499 433.360138,374.886169 
	C439.158966,375.191284 444.583801,380.534760 445.101685,386.451538 
	C445.663330,392.868378 442.111908,397.346649 434.673462,399.114075 
z"/>
<path fill="#2699F3" opacity="1.000000" stroke="none" 
	d="
M655.081421,397.197449 
	C649.568909,400.354797 644.334595,400.910858 639.507019,396.887146 
	C635.752747,393.758026 633.520447,389.655212 634.853882,384.595673 
	C636.185669,379.542328 639.748169,376.322571 644.742676,375.123138 
	C649.831909,373.900940 653.711914,376.198517 656.737671,380.254242 
	C661.240967,386.290314 660.887024,391.050903 655.081421,397.197449 
z"/>
</svg>